<svg width="16" height="16" viewBox="0 0 16 16" fill="none" xmlns="http://www.w3.org/2000/svg">
<path d="M10.333 6C11.3939 6 12.4113 6.42143 13.1614 7.17157C13.9116 7.92172 14.333 8.93913 14.333 10V14.6667H11.6663V10C11.6663 9.64638 11.5259 9.30724 11.2758 9.05719C11.0258 8.80714 10.6866 8.66667 10.333 8.66667C9.97939 8.66667 9.64025 8.80714 9.3902 9.05719C9.14015 9.30724 8.99967 9.64638 8.99967 10V14.6667H6.33301V10C6.33301 8.93913 6.75444 7.92172 7.50458 7.17157C8.25473 6.42143 9.27214 6 10.333 6Z" stroke="black" stroke-width="0.833333" stroke-linecap="round" stroke-linejoin="round"/>
<path d="M3.66667 6.6665H1V14.6665H3.66667V6.6665Z" stroke="black" stroke-width="0.833333" stroke-linecap="round" stroke-linejoin="round"/>
<path d="M2.33333 4.66667C3.06971 4.66667 3.66667 4.06971 3.66667 3.33333C3.66667 2.59695 3.06971 2 2.33333 2C1.59695 2 1 2.59695 1 3.33333C1 4.06971 1.59695 4.66667 2.33333 4.66667Z" stroke="black" stroke-width="0.833333" stroke-linecap="round" stroke-linejoin="round"/>
</svg>
